<?xml version="1.0" encoding="iso-8859-1"?>
<!-- Generator: Adobe Illustrator 19.0.0, SVG Export Plug-In . SVG Version: 6.00 Build 0)  -->
<svg version="1.1" id="Capa_1" xmlns="http://www.w3.org/2000/svg" xmlns:xlink="http://www.w3.org/1999/xlink" x="0px" y="0px"
	 viewBox="0 0 404.847 404.847" style="enable-background:new 0 0 404.847 404.847;" xml:space="preserve">
<g>
	<g>
		<path d="M404.806,288.033c-0.809-15.947-13.556-28.693-29.503-29.503v-0.08h-14c2.873-5.998,4.402-12.55,4.48-19.2
			c0-45.92-72-81.92-163.36-81.92s-163.36,36-163.36,81.92c0.075,6.65,1.604,13.203,4.48,19.2h-14
			c-17.165,0.871-30.374,15.492-29.503,32.657c0.809,15.947,13.556,28.693,29.503,29.503h6.32v9.84
			c-1.811,19.445,12.484,36.676,31.928,38.487c2.206,0.205,4.426,0.203,6.632-0.007h256c19.441,1.852,36.702-12.407,38.553-31.848
			c0.21-2.205,0.212-4.426,0.007-6.632v-9.76h6.32C392.468,319.819,405.677,305.198,404.806,288.033z M202.423,173.41
			c80,0,147.36,30.16,147.36,65.92c-0.172,6.959-2.553,13.684-6.8,19.2H61.863c-4.247-5.516-6.628-12.241-6.8-19.2
			C55.063,203.57,122.423,173.41,202.423,173.41z M389.284,290.709c-0.545,7.484-6.497,13.435-13.981,13.981h-228.88
			c-4.418,0-8,3.582-8,8s3.582,8,8,8h206.56v9.76c1.578,10.843-5.933,20.912-16.776,22.49c-1.918,0.279-3.867,0.276-5.784-0.01h-256
			c-22.48,0-22.48-16.88-22.48-22.48v-9.76h50.88c4.418,0,8-3.582,8-8s-3.582-8-8-8h-73.28c-8.328-0.607-14.588-7.851-13.981-16.179
			c0.545-7.484,6.497-13.435,13.981-13.981h345.76C383.632,275.137,389.891,282.38,389.284,290.709z"/>
	</g>
</g>
<g>
	<g>
		<g>
			<path d="M123.623,239.25c-0.025,0-0.049-0.004-0.074-0.004c-0.029,0-0.057,0.004-0.086,0.004H123.623z"/>
			<path d="M170.651,189.378c-2.874-2.992-7.557-3.291-10.788-0.689l-41.52,36.56c-3.314,2.922-3.631,7.978-0.708,11.292
				c1.5,1.7,3.65,2.68,5.915,2.704c1.914-0.023,3.757-0.729,5.194-1.996l41.68-36.56
				C173.61,197.629,173.712,192.565,170.651,189.378z"/>
		</g>
	</g>
</g>
<g>
	<g>
		<path d="M286.663,225.25l-41.52-36.56c-3.314-2.96-8.4-2.674-11.36,0.64c-2.96,3.314-2.674,8.4,0.64,11.36l41.68,36.56
			c3.441,2.771,8.477,2.229,11.249-1.212C289.954,232.807,289.655,228.123,286.663,225.25z"/>
	</g>
</g>
<g>
	<g>
		<path d="M202.423,183.25c-4.418,0-8,3.582-8,8v40c0,4.418,3.582,8,8,8s8-3.582,8-8v-40
			C210.423,186.832,206.842,183.25,202.423,183.25z"/>
	</g>
</g>
<g>
	<g>
		<path d="M96.023,104.45c-8.4-11.92-13.04-18.08,0-30.8c3.159-3.093,3.213-8.161,0.12-11.32c-3.093-3.159-8.161-3.213-11.32-0.12
			c-22.88,22.4-10.16,40-1.76,51.6s14.24,19.68,1.28,34.56c-2.791,3.425-2.277,8.464,1.148,11.255
			c3.277,2.67,8.065,2.331,10.932-0.775C117.623,134.37,104.423,116.37,96.023,104.45z"/>
	</g>
</g>
<g>
	<g>
		<path d="M174.103,80.45c-8.4-11.92-13.04-18.08,0-30.8c3.159-3.225,3.105-8.401-0.12-11.56c-3.225-3.159-8.401-3.105-11.56,0.12
			c-22.88,22.4-10.16,40-1.76,51.6c8.4,11.6,14.32,19.68,1.76,34.56c-2.791,3.425-2.277,8.464,1.148,11.255
			c3.277,2.67,8.065,2.331,10.932-0.775C195.703,110.37,182.503,92.37,174.103,80.45z"/>
	</g>
</g>
<g>
	<g>
		<path d="M243.383,80.45c-8.4-11.92-13.04-18.08,0-30.8c3.159-3.093,3.213-8.161,0.12-11.32c-3.093-3.159-8.161-3.213-11.32-0.12
			c-22.88,22.4-10.16,40-1.76,51.6c8.4,11.6,14.16,19.68,1.28,34.56c-2.791,3.425-2.277,8.464,1.148,11.255
			c3.277,2.67,8.065,2.33,10.932-0.775C264.983,110.37,251.783,92.37,243.383,80.45z"/>
	</g>
</g>
<g>
	<g>
		<path d="M321.063,104.45c-8.4-11.92-13.04-18.08,0-30.8c3.159-3.093,3.213-8.161,0.12-11.32c-3.093-3.159-8.161-3.213-11.32-0.12
			c-22.88,22.4-10.16,40-1.76,51.6c8.4,11.6,14.32,19.68,1.28,34.56c-2.791,3.425-2.277,8.464,1.148,11.255
			c3.277,2.67,8.065,2.33,10.932-0.775C342.663,134.37,329.463,116.37,321.063,104.45z"/>
	</g>
</g>
<g>
</g>
<g>
</g>
<g>
</g>
<g>
</g>
<g>
</g>
<g>
</g>
<g>
</g>
<g>
</g>
<g>
</g>
<g>
</g>
<g>
</g>
<g>
</g>
<g>
</g>
<g>
</g>
<g>
</g>
</svg>
