<?xml version="1.0" encoding="iso-8859-1"?>
<!-- Generator: Adobe Illustrator 19.0.0, SVG Export Plug-In . SVG Version: 6.00 Build 0)  -->
<svg version="1.1" id="Capa_1" xmlns="http://www.w3.org/2000/svg" xmlns:xlink="http://www.w3.org/1999/xlink" x="0px" y="0px"
	 viewBox="0 0 364.76 364.76" style="enable-background:new 0 0 364.76 364.76;" xml:space="preserve">
<g>
	<g>
		<path d="M182.12,44.976c-95.04,0-173.36,32.56-182.08,75.76c-0.053,0.532-0.053,1.068,0,1.6v131.84c0,4.418,3.582,8,8,8H101v45.92
			c-0.045,3.989,2.856,7.402,6.8,8c19.465,2.577,39.085,3.806,58.72,3.68c54.48,0,135.28-9.2,191.28-56
			c1.745-1.45,2.792-3.573,2.88-5.84l4.08-128C364.76,81.936,284.36,44.976,182.12,44.976z M101,246.176H15.48v-35.04H101V246.176z
			 M103.48,192.896c-0.757,0.754-1.355,1.651-1.76,2.64H15.48v-64.8l146.96,5.68L103.48,192.896z M344.84,253.536
			c-74.4,59.68-197.68,50.72-227.84,47.52v-25.76c9.84,0.88,26.96,2.08,48,2.08c51.12,0,125.92-6.96,180.08-41.36L344.84,253.536z
			 M346.04,216.576c-72,53.04-198.08,45.68-228.96,42.96v-51.76c21.408,3.639,43.085,5.459,64.8,5.44
			c74.32,0,136.96-19.36,165.84-48L346.04,216.576z M181.8,197.616c-18.742,0.045-37.462-1.319-56-4.08l61.28-58.24
			c3.403-2.818,3.877-7.861,1.058-11.264c-1.488-1.797-3.686-2.854-6.018-2.896l-163.2-6.32c16-27.36,77.44-53.84,162.8-53.84
			c99.92,0,166.96,35.2,167.04,68.08l0.08,0.48C348.84,162.416,281.72,197.616,181.8,197.616z"/>
	</g>
</g>
<g>
	<g>
		<circle cx="132.6" cy="92.816" r="12.8"/>
	</g>
</g>
<g>
	<g>
		<circle cx="247.16" cy="99.936" r="12.8"/>
	</g>
</g>
<g>
	<g>
		<circle cx="215.88" cy="164.016" r="12.8"/>
	</g>
</g>
<g>
</g>
<g>
</g>
<g>
</g>
<g>
</g>
<g>
</g>
<g>
</g>
<g>
</g>
<g>
</g>
<g>
</g>
<g>
</g>
<g>
</g>
<g>
</g>
<g>
</g>
<g>
</g>
<g>
</g>
</svg>
