<?xml version="1.0" encoding="iso-8859-1"?>
<!-- Generator: Adobe Illustrator 19.0.0, SVG Export Plug-In . SVG Version: 6.00 Build 0)  -->
<svg version="1.1" id="Capa_1" xmlns="http://www.w3.org/2000/svg" xmlns:xlink="http://www.w3.org/1999/xlink" x="0px" y="0px"
	 viewBox="0 0 440.945 440.945" style="enable-background:new 0 0 440.945 440.945;" xml:space="preserve">
<g>
	<g>
		<path d="M437.395,133.179c-5.853-15.09-18.371-26.614-33.891-31.203l-0.08-0.08c-3.76-1.12-92.32-28.24-132.16-30
			c-53.92-2.4-217.6,0-219.12,0C23.292,71.949-0.053,95.381,0,124.232c0.04,21.461,13.201,40.714,33.183,48.543
			c0,24.72,0,119.04,0,131.2c0,17.52,10.08,29.04,30.32,35.2c16.8,5.12,106.96,28.32,110.8,29.36
			c3.603,0.951,7.313,1.435,11.04,1.44h187.92c17.331,1.631,32.703-11.097,34.334-28.429c0.189-2.013,0.185-4.039-0.014-6.051
			v-134.72C434.482,190.341,447.829,160.077,437.395,133.179z M68.383,323.815c-16.56-5.04-18.88-12.56-18.96-20
			c0-11.36,0-98.8,0-128h2.88c4.418,0,8-3.582,8-8s-3.582-8-8-8c-20.037,0-36.28-16.243-36.28-36.28
			c0-20.037,16.243-36.28,36.28-36.28c1.68,0,164.88-2.4,218.32,0c21.977,2.131,43.735,6.119,65.04,11.92h-165.76
			c-28.851-0.016-52.253,23.36-52.269,52.211c-0.012,21.587,13.256,40.958,33.389,48.749v135.36c0.027,3.646,0.511,7.274,1.44,10.8
			C123.503,338.775,79.103,327.175,68.383,323.815z M397.263,186.935l0.32,0.24c-3.657,0.903-6.19,4.234-6.08,8v140.32
			c0,12.64-5.68,18.32-18.32,18.32h-187.84c-2.699,0.071-5.394-0.253-8-0.96h-0.56c-6.88-2.24-10-8-10-17.2v-140.72
			c0.118-3.742-2.374-7.066-6-8c-19.396-4.937-31.118-24.664-26.18-44.06c4.082-16.038,18.511-27.273,35.06-27.3h218.72
			c20.015,0.033,36.213,16.285,36.18,36.3C424.536,168.424,413.301,182.853,397.263,186.935z"/>
	</g>
</g>
<g>
</g>
<g>
</g>
<g>
</g>
<g>
</g>
<g>
</g>
<g>
</g>
<g>
</g>
<g>
</g>
<g>
</g>
<g>
</g>
<g>
</g>
<g>
</g>
<g>
</g>
<g>
</g>
<g>
</g>
</svg>
