<?xml version="1.0" encoding="iso-8859-1"?>
<!-- Generator: Adobe Illustrator 19.0.0, SVG Export Plug-In . SVG Version: 6.00 Build 0)  -->
<svg version="1.1" id="Capa_1" xmlns="http://www.w3.org/2000/svg" xmlns:xlink="http://www.w3.org/1999/xlink" x="0px" y="0px"
	 viewBox="0 0 431.76 431.76" style="enable-background:new 0 0 431.76 431.76;" xml:space="preserve">
<g>
	<g>
		<path d="M349.782,49.997c-0.871-0.315-1.79-0.476-2.717-0.477v-0.24h-37.6c-3.389,0.013-6.402,2.161-7.52,5.36l-34.16,96
			l17.04-141.68c0.53-4.386-2.596-8.372-6.982-8.902c-0.338-0.041-0.678-0.06-1.018-0.058h-36c-4.069-0.029-7.512,3-8,7.04
			l-11.6,95.36V42.32c0-4.418-3.582-8-8-8h-36c-4.418,0-8,3.582-8,8v30.56h-1.12h-31.68l-2.08-36.16c-0.254-4.23-3.763-7.528-8-7.52
			h-37.6c-4.418-0.008-8.006,3.567-8.014,7.986c0,0.165,0.005,0.33,0.014,0.494l7.2,122.08h-3.2
			c-4.418-0.027-8.022,3.533-8.048,7.951c-0.002,0.31,0.014,0.62,0.048,0.929l27.6,256c0.451,4.071,3.904,7.145,8,7.12h185.68
			c4.096,0.025,7.549-3.049,8-7.12l27.6-256c0.486-4.391-2.68-8.346-7.071-8.832c-0.308-0.034-0.618-0.05-0.929-0.048h-6.64
			l35.6-99.52C356.087,56.085,353.937,51.499,349.782,49.997z M247.945,15.76h19.92l-24,200c-6.647,3.729-13.823,6.426-21.28,8
			L247.945,15.76z M185.225,50.08h20.08v176c-6.925,0.12-13.836-0.66-20.56-2.32L185.225,50.08z M160.505,88.4l7.52,128
			c-9.097-4.883-16.889-11.879-22.72-20.4l-6.32-107.84L160.505,88.4z M118.905,44.72l6.48,115.04h-21.44l-6.72-114.48
			L118.905,44.72z M290.825,415.76h-170.88l-26.16-240h26.88c0.986,7.818,3.342,15.4,6.96,22.4
			c15.598,28.068,45.499,45.146,77.6,44.32c43.84,0,80-29.28,84.56-66.72h26.88L290.825,415.76z M301.945,159.76h-19.68h-0.72
			l33.6-94.48h20.8L301.945,159.76z"/>
	</g>
</g>
<g>
	<g>
		<path d="M205.225,270.56c-43.68,0-77.92,24-77.92,54.16c0,30.16,34.24,54.16,77.92,54.16s77.92-24,77.92-54.16
			C283.145,294.56,248.905,270.56,205.225,270.56z M205.225,362.88v-0.08c-33.6,0-61.92-17.44-61.92-38.16
			c0-20.72,28.32-38.16,61.92-38.16c33.6,0,61.92,17.28,61.92,38.24C267.145,345.68,238.825,362.88,205.225,362.88z"/>
	</g>
</g>
<g>
</g>
<g>
</g>
<g>
</g>
<g>
</g>
<g>
</g>
<g>
</g>
<g>
</g>
<g>
</g>
<g>
</g>
<g>
</g>
<g>
</g>
<g>
</g>
<g>
</g>
<g>
</g>
<g>
</g>
</svg>
