<?xml version="1.0" encoding="iso-8859-1"?>
<!-- Generator: Adobe Illustrator 19.0.0, SVG Export Plug-In . SVG Version: 6.00 Build 0)  -->
<svg version="1.1" id="Capa_1" xmlns="http://www.w3.org/2000/svg" xmlns:xlink="http://www.w3.org/1999/xlink" x="0px" y="0px"
	 viewBox="0 0 480.017 480.017" style="enable-background:new 0 0 480.017 480.017;" xml:space="preserve">
<g>
	<g>
		<circle cx="97.732" cy="251.451" r="15.28"/>
	</g>
</g>
<g>
	<g>
		<circle cx="136.53" cy="302.241" r="15.28"/>
	</g>
</g>
<g>
	<g>
		<circle cx="150.534" cy="211.079" r="15.28"/>
	</g>
</g>
<g>
	<g>
		<circle cx="189.329" cy="261.88" r="15.28"/>
	</g>
</g>
<g>
	<g>
		<circle cx="203.299" cy="170.819" r="15.28"/>
	</g>
</g>
<g>
	<g>
		<circle cx="242.112" cy="221.497" r="15.28"/>
	</g>
</g>
<g>
	<g>
		<circle cx="262.203" cy="316.029" r="15.28"/>
	</g>
</g>
<g>
	<g>
		<circle cx="326.233" cy="298.074" r="15.28"/>
	</g>
</g>
<g>
	<g>
		<circle cx="372.955" cy="218.65" r="15.28"/>
	</g>
</g>
<g>
	<g>
		<circle cx="390.19" cy="280.188" r="15.28"/>
	</g>
</g>
<g>
	<g>
		<path d="M475.802,296.038c-3.233-6.054-8.144-11.046-14.144-14.379l-0.08-0.16c-5.818-3.288-12.445-4.869-19.12-4.56l-23.12-82.56
			c17.302-9.432,23.681-31.104,14.249-48.405c-9.432-17.302-31.104-23.681-48.405-14.249c-11.987,6.535-19.194,19.337-18.564,32.975
			l-85.2,24l-44.08-57.6c12.588-15.161,10.503-37.656-4.658-50.244c-15.161-12.588-37.656-10.503-50.244,4.658
			c-8.742,10.529-10.692,25.131-5.018,37.585l-119.04,90.8c-12.896-10.306-31.106-10.666-44.4-0.88
			c-15.641,11.987-18.603,34.383-6.617,50.023c6.747,8.804,17.205,13.969,28.297,13.977c5.08,0.005,10.101-1.086,14.72-3.2
			l52.08,68.16c-12.548,15.194-10.403,37.683,4.791,50.231c6.396,5.282,14.433,8.171,22.729,8.169
			c7.916,0.095,15.634-2.468,21.92-7.28c13.181-10.118,17.656-27.983,10.8-43.12l46.24-35.36l7.2,25.76
			c-17.302,9.432-23.681,31.104-14.249,48.405c9.432,17.302,31.104,23.681,48.405,14.249c11.987-6.535,19.194-19.337,18.564-32.975
			l144-40.4c9.284,17.381,30.901,23.946,48.282,14.662S485.086,313.419,475.802,296.038z M147.098,341.658
			c-3.509,2.675-4.189,7.686-1.52,11.2c6.606,8.631,4.965,20.983-3.666,27.589c-0.005,0.004-0.009,0.007-0.014,0.011
			c-8.695,6.387-20.882,4.762-27.6-3.68c-6.606-8.631-4.965-20.983,3.666-27.589c0.005-0.004,0.009-0.007,0.014-0.011
			c3.508-2.675,4.189-7.686,1.52-11.2l-60.72-79.44c-2.651-3.31-7.424-3.977-10.88-1.52c-8.695,6.387-20.882,4.762-27.6-3.68
			c-6.574-8.602-4.965-20.898,3.6-27.52c8.695-6.387,20.882-4.762,27.6,3.68c2.675,3.509,7.686,4.189,11.2,1.52l130.08-99.68
			c3.508-2.675,4.189-7.686,1.52-11.2c-6.606-8.631-4.965-20.983,3.666-27.589c0.005-0.004,0.009-0.007,0.014-0.011
			c8.619-6.39,20.739-4.875,27.52,3.44c6.606,8.631,4.965,20.983-3.666,27.589c-0.005,0.004-0.009,0.007-0.014,0.011
			c-3.509,2.675-4.189,7.686-1.52,11.2l60.72,79.44c2.675,3.509,7.686,4.189,11.2,1.52c8.695-6.387,20.882-4.762,27.6,3.68
			c6.606,8.631,4.965,20.983-3.666,27.589c-0.005,0.004-0.009,0.007-0.014,0.011c-8.631,6.606-20.983,4.965-27.589-3.666
			c-0.004-0.005-0.007-0.009-0.011-0.014c-2.675-3.508-7.686-4.189-11.2-1.52L147.098,341.658z M449.418,331.338l0.08,0.24
			c-10.37,2.77-21.047-3.28-24-13.6c-0.913-4.323-5.157-7.088-9.48-6.175c-0.229,0.048-0.456,0.107-0.68,0.175l-157.92,44.64
			c-4.233,1.203-6.7,5.6-5.52,9.84c2.99,10.45-3.058,21.344-13.508,24.334c-10.45,2.99-21.344-3.058-24.334-13.508
			c-2.99-10.45,3.058-21.344,13.508-24.334c0.111-0.032,0.222-0.063,0.334-0.092c4.233-1.203,6.7-5.6,5.52-9.84l-11.12-39.04
			l59.12-45.2c6.428,5.255,14.497,8.086,22.8,8c7.815,0.001,15.411-2.587,21.6-7.36c15.633-11.978,18.605-34.357,6.64-50
			c-5.146-6.524-12.425-11.027-20.56-12.72l66.08-18.48c4.245-1.227,6.691-5.662,5.464-9.907c-0.032-0.112-0.067-0.223-0.104-0.333
			c-2.99-10.45,3.058-21.344,13.508-24.334c10.45-2.99,21.344,3.058,24.334,13.508s-3.058,21.344-13.508,24.334
			c-0.111,0.032-0.223,0.063-0.334,0.092c-4.253,1.199-6.728,5.618-5.529,9.87c0.05,0.178,0.107,0.355,0.169,0.53l26.96,96
			c1.203,4.233,5.6,6.7,9.84,5.52c10.601-2.398,21.139,4.253,23.536,14.854C464.539,318.187,458.971,328.111,449.418,331.338z"/>
	</g>
</g>
<g>
</g>
<g>
</g>
<g>
</g>
<g>
</g>
<g>
</g>
<g>
</g>
<g>
</g>
<g>
</g>
<g>
</g>
<g>
</g>
<g>
</g>
<g>
</g>
<g>
</g>
<g>
</g>
<g>
</g>
</svg>
